HIERARCHY
ROOT Hips
{
 OFFSET 0.000000 0.000000 0.000000
 CHANNELS 6 Xposition Yposition Zposition Yrotation Xrotation Zrotation
 JOINT Chest
 {
  OFFSET 0.000000 9.585900 0.002600
  CHANNELS 3 Yrotation Xrotation Zrotation
  JOINT Chest2
  {
   OFFSET 0.000000 9.601200 -0.005300
   CHANNELS 3 Yrotation Xrotation Zrotation
   JOINT Chest3
   {
    OFFSET 0.000000 9.561800 0.000000
    CHANNELS 3 Yrotation Xrotation Zrotation
    JOINT Chest4
    {
     OFFSET 0.000000 9.552100 0.000000
     CHANNELS 3 Yrotation Xrotation Zrotation
     JOINT Neck
     {
      OFFSET 0.000000 14.453000 0.000000
      CHANNELS 3 Yrotation Xrotation Zrotation
      JOINT Head
      {
       OFFSET 0.000000 8.936500 -0.011300
       CHANNELS 3 Yrotation Xrotation Zrotation
       End Site
       {
        OFFSET 0.000000 17.073600 -0.006000
       }
      }
     }
     JOINT RightCollar
     {
      OFFSET -2.921100 9.558500 0.000000
      CHANNELS 3 Yrotation Xrotation Zrotation
      JOINT RightShoulder
      {
       OFFSET -13.519700 0.000000 0.000000
       CHANNELS 3 Yrotation Xrotation Zrotation
       JOINT RightElbow
       {
        OFFSET 0.000000 -29.696600 0.000000
        CHANNELS 3 Yrotation Xrotation Zrotation
        JOINT RightWrist
        {
         OFFSET 0.000000 -24.004700 0.000000
         CHANNELS 3 Yrotation Xrotation Zrotation
         End Site
         {
          OFFSET 0.000000 -17.728500 0.000000
         }
        }
       }
      }
     }
     JOINT LeftCollar
     {
      OFFSET 2.921100 9.558500 0.000000
      CHANNELS 3 Yrotation Xrotation Zrotation
      JOINT LeftShoulder
      {
       OFFSET 13.519700 0.000000 0.000000
       CHANNELS 3 Yrotation Xrotation Zrotation
       JOINT LeftElbow
       {
        OFFSET 0.000000 -29.696600 0.000000
        CHANNELS 3 Yrotation Xrotation Zrotation
        JOINT LeftWrist
        {
         OFFSET 0.000000 -24.004700 0.000000
         CHANNELS 3 Yrotation Xrotation Zrotation
         End Site
         {
          OFFSET 0.000000 -17.728500 0.000000
         }
        }
       }
      }
     }
    }
   }
  }
 }
 JOINT RightHip
 {
  OFFSET -7.771700 -0.012900 -0.001300
  CHANNELS 3 Yrotation Xrotation Zrotation
  JOINT RightKnee
  {
   OFFSET 0.000000 -40.869800 0.001200
   CHANNELS 3 Yrotation Xrotation Zrotation
   JOINT RightAnkle
   {
    OFFSET 0.000000 -39.717900 0.002100
    CHANNELS 3 Yrotation Xrotation Zrotation
    JOINT RightToe
    {
     OFFSET 0.000000 -4.965400 11.033500
     CHANNELS 3 Yrotation Xrotation Zrotation
     End Site
     {
      OFFSET 0.000000 -1.423100 5.872300
     }
    }
   }
  }
 }
 JOINT LeftHip
 {
  OFFSET 7.771700 -0.012900 -0.001300
  CHANNELS 3 Yrotation Xrotation Zrotation
  JOINT LeftKnee
  {
   OFFSET 0.000000 -40.869800 0.001200
   CHANNELS 3 Yrotation Xrotation Zrotation
   JOINT LeftAnkle
   {
    OFFSET 0.000000 -39.717900 0.002100
    CHANNELS 3 Yrotation Xrotation Zrotation
    JOINT LeftToe
    {
     OFFSET 0.000000 -4.965400 11.033500
     CHANNELS 3 Yrotation Xrotation Zrotation
     End Site
     {
      OFFSET 0.000000 -1.423100 5.872300
     }
    }
   }
  }
 }
}
MOTION
Frames: 12
Frame Time: 0.008333
-259.682415 60.865431 -82.072794 159.781391 -17.653419 4.805957 3.004748 17.573188 5.528472 0.248943 2.018543 0.632939 0.426101 3.339582 1.043324 2.508769 15.249638 5.150703 3.786674 16.096469 -8.227738 6.138028 -8.389653 -9.972604 10.235259 4.158797 -7.157428 23.848967 -24.137660 -22.489620 46.118539 -53.118702 -29.090911 12.328818 13.024194 -21.965454 -11.890008 -9.683662 -3.440059 -26.098235 -24.558340 15.482057 -35.192960 -20.694437 24.112157 0.015259 -6.412253 35.033493 2.794952 -52.171979 3.236895 -33.525311 69.346663 -34.591076 -1.877045 -4.879036 -0.259842 0.200439 -0.541133 0.097575 19.222208 -48.838908 -8.617177 23.441181 63.038835 23.172322 -15.436877 -18.020878 2.616402 0.074465 0.493740 0.063743
-259.686452 60.865761 -82.076284 159.780921 -17.668441 4.819939 3.004259 17.590430 5.497002 0.248063 2.018366 0.641364 0.427617 3.341554 1.039846 2.512622 15.251950 5.148490 3.778103 16.094347 -8.218430 6.134914 -8.393974 -9.965999 10.228667 4.127457 -7.159796 23.868846 -24.139389 -22.475324 46.121260 -53.075458 -29.084126 12.333953 13.021401 -21.960672 -11.915499 -9.710582 -3.428714 -26.092547 -24.549135 15.482855 -35.181084 -20.666743 24.096616 0.016486 -6.424342 35.035812 2.803029 -52.151231 3.223314 -33.514986 69.345117 -34.590202 -1.881330 -4.894107 -0.257189 0.201196 -0.528617 0.098752 19.238360 -48.822490 -8.631815 23.402364 63.055670 23.148886 -15.482794 -18.023607 2.615706 0.077022 0.492898 0.061089
-259.688812 60.864940 -82.077138 159.781988 -17.670810 4.818105 3.005256 17.592124 5.492909 0.248605 2.021400 0.637622 0.429712 3.340384 1.038986 2.518846 15.263861 5.122659 3.780092 16.079331 -8.181780 6.109279 -8.387734 -9.958421 10.223314 4.089373 -7.138768 23.875544 -24.136675 -22.459607 46.143041 -53.036377 -29.093798 12.336688 13.013354 -21.954885 -11.931271 -9.722894 -3.387091 -26.094276 -24.559017 15.482093 -35.182038 -20.650700 24.081991 0.014288 -6.426775 35.036300 2.799612 -52.148357 3.226126 -33.506843 69.346046 -34.585467 -1.880228 -4.896129 -0.254352 0.199356 -0.526877 0.095199 19.237247 -48.821358 -8.632310 23.394235 63.059613 23.145077 -15.462225 -18.035640 2.618384 0.085379 0.501743 0.053837
-259.688319 60.863476 -82.076849 159.782399 -17.671997 4.798001 3.011695 17.591756 5.512079 0.255055 2.020021 0.621596 0.427632 3.342238 1.046645 2.521079 15.267590 5.114875 3.767921 16.080676 -8.172497 6.091914 -8.389674 -9.944069 10.221508 4.075454 -7.125328 23.883088 -24.138990 -22.457656 46.165836 -52.997451 -29.103360 12.328192 13.000597 -21.953813 -11.940767 -9.730432 -3.366944 -26.092482 -24.571261 15.484784 -35.210060 -20.643353 24.066621 0.026221 -6.411516 35.037170 2.774667 -52.148474 3.257911 -33.501271 69.345808 -34.581902 -1.869757 -4.888406 -0.252903 0.187144 -0.532819 0.094457 19.220869 -48.829600 -8.615913 23.397105 63.064851 23.153355 -15.376664 -18.054499 2.624325 0.120769 0.511900 0.047847
-259.689059 60.862499 -82.079086 159.770615 -17.684960 4.794088 3.029481 17.602682 5.513764 0.252487 2.021364 0.623939 0.429356 3.342949 1.042031 2.523859 15.270798 5.107093 3.741043 16.086776 -8.173163 6.069682 -8.392323 -9.921146 10.226879 4.049826 -7.129960 23.894239 -24.140243 -22.438854 46.161008 -52.952628 -29.098461 12.300847 12.985074 -21.962413 -11.962097 -9.754838 -3.354395 -26.089275 -24.581143 15.500781 -35.212156 -20.622979 24.035830 0.031891 -6.404195 35.027950 2.776374 -52.136454 3.265620 -33.485979 69.350901 -34.565718 -1.864890 -4.883116 -0.252010 0.182627 -0.537090 0.091407 19.220471 -48.823916 -8.608049 23.400825 63.081767 23.162658 -15.306947 -18.072463 2.629922 0.135575 0.511137 0.043691
-259.691535 60.860662 -82.079730 159.772714 -17.686393 4.792931 3.028962 17.602499 5.508158 0.254668 2.021984 0.620139 0.430357 3.343823 1.040310 2.527612 15.273777 5.099236 3.720725 16.089864 -8.166804 6.071973 -8.399843 -9.908302 10.224524 3.997483 -7.156142 23.898818 -24.124956 -22.385101 46.158146 -52.911470 -29.094130 12.296317 12.977111 -21.959596 -11.975988 -9.761870 -3.334223 -26.088761 -24.590087 15.510512 -35.222144 -20.617863 24.023627 0.024099 -6.399757 35.018538 2.782000 -52.135137 3.256963 -33.469167 69.355755 -34.542736 -1.871199 -4.886777 -0.254266 0.178883 -0.532523 0.088538 19.217962 -48.827943 -8.609676 23.408582 63.088797 23.172875 -15.289719 -18.082098 2.630314 0.128512 0.514011 0.041248
-259.694423 60.858599 -82.080378 159.774108 -17.687451 4.794941 3.031042 17.601612 5.496659 0.255773 2.022623 0.615361 0.430853 3.345152 1.041634 2.530533 15.275557 5.097530 3.712903 16.089033 -8.156124 6.002183 -8.382997 -9.886458 10.221272 3.974906 -7.159003 23.911429 -24.124011 -22.369596 46.158360 -52.874501 -29.089229 12.297568 12.963725 -21.963414 -11.990820 -9.776747 -3.326968 -26.082385 -24.582815 15.522314 -35.235391 -20.619504 24.015569 -0.003264 -6.407080 35.002770 2.791843 -52.136282 3.246921 -33.469868 69.359299 -34.538274 -1.883071 -4.888155 -0.255671 0.184648 -0.530957 0.088719 19.207727 -48.832584 -8.611683 23.430754 63.094724 23.192199 -15.265365 -18.089813 2.629052 0.080981 0.513676 0.030213
-259.696083 60.856515 -82.081304 159.772965 -17.693003 4.792098 3.039123 17.603462 5.478343 0.254194 2.024575 0.625778 0.432605 3.346628 1.040299 2.531113 15.275156 5.107888 3.703696 16.091741 -8.157161 5.961700 -8.373861 -9.866737 10.220178 3.967808 -7.159997 23.955514 -24.126066 -22.382960 46.126226 -52.835906 -29.074953 12.291801 12.951198 -21.975320 -12.007770 -9.792960 -3.323820 -26.065340 -24.570065 15.522232 -35.248725 -20.626424 24.013430 -0.006833 -6.405646 34.995476 2.799230 -52.131694 3.243330 -33.473252 69.360970 -34.534707 -1.887674 -4.889837 -0.255545 0.186840 -0.529363 0.088215 19.198359 -48.833741 -8.603901 23.421889 63.104742 23.191623 -15.253214 -18.098537 2.619594 0.137106 0.510640 0.046025
-259.697471 60.854298 -82.082023 159.772320 -17.698485 4.788071 3.043575 17.606224 5.470081 0.255203 2.025177 0.624866 0.432396 3.348401 1.047543 2.541505 15.280242 5.093886 3.678360 16.094593 -8.144619 5.928195 -8.370992 -9.841012 10.204444 3.937419 -7.164943 23.983804 -24.125167 -22.366692 46.104432 -52.805906 -29.060533 12.286375 12.935617 -21.987739 -12.027736 -9.806456 -3.305118 -26.062375 -24.567221 15.532689 -35.258619 -20.631528 24.002752 -0.009766 -6.400601 34.987741 2.795249 -52.126599 3.248924 -33.453347 69.365773 -34.515605 -1.895063 -4.890741 -0.252829 0.184439 -0.527243 0.084945 19.189125 -48.833815 -8.596248 23.431829 63.107642 23.202604 -15.235305 -18.105090 2.614626 0.093239 0.508823 0.040259
-259.698874 60.851753 -82.081794 159.776300 -17.699195 4.782176 3.044862 17.603028 5.461029 0.253517 2.027041 0.632183 0.432955 3.349869 1.047891 2.554673 15.281302 5.051086 3.656257 16.098879 -8.098921 5.896201 -8.362650 -9.817514 10.190003 3.901996 -7.163150 23.986014 -24.128958 -22.319986 46.099250 -52.783515 -29.052010 12.281171 12.921873 -22.001538 -12.063953 -9.814163 -3.265312 -26.048790 -24.556307 15.551559 -35.265068 -20.636053 23.990139 -0.018725 -6.398811 34.977719 2.785640 -52.126866 3.255898 -33.447333 69.367942 -34.507937 -1.900340 -4.893907 -0.254715 0.188692 -0.523175 0.084913 19.178627 -48.837934 -8.594735 23.447007 63.106553 23.219933 -15.206310 -18.112190 2.608249 0.124431 0.507250 0.049047
-259.700300 60.849204 -82.081504 159.779549 -17.699864 4.778799 3.047764 17.599888 5.449639 0.250413 2.027893 0.638862 0.435921 3.347464 1.037164 2.568182 15.283456 5.042353 3.602413 16.122684 -8.095552 5.881785 -8.365596 -9.783545 10.173379 3.886746 -7.155884 23.988071 -24.132089 -22.296261 46.112762 -52.765971 -29.054338 12.267845 12.903484 -22.021061 -12.088304 -9.810487 -3.236121 -26.046162 -24.557915 15.565293 -35.267392 -20.643414 23.982025 -0.021596 -6.391512 34.970718 2.780699 -52.127010 3.254865 -33.437501 69.371784 -34.492557 -1.902177 -4.899219 -0.258440 0.185066 -0.517709 0.084042 19.173444 -48.842205 -8.596443 23.474467 63.104811 23.247716 -15.198361 -18.117284 2.606564 0.123793 0.510471 0.048615
-259.702274 60.846804 -82.081543 159.780348 -17.701460 4.783543 3.051146 17.598439 5.429832 0.252651 2.027494 0.639358 0.438145 3.347824 1.034807 2.581262 15.283380 5.030644 3.577200 16.134409 -8.072310 5.835047 -8.344086 -9.755564 10.151408 3.874989 -7.144797 24.004347 -24.139923 -22.290759 46.097852 -52.754958 -29.035645 12.255235 12.849667 -22.084584 -12.121044 -9.805863 -3.209596 -26.040994 -24.556090 15.586534 -35.273094 -20.668004 23.981472 -0.026626 -6.368402 34.956217 2.786756 -52.126515 3.245627 -33.437781 69.373478 -34.490161 -1.904551 -4.903923 -0.266226 0.188449 -0.512583 0.088680 19.181428 -48.843912 -8.606501 23.486527 63.109673 23.260219 -15.209615 -18.118640 2.607448 0.109271 0.509476 0.047908
